<?xml version="1.0" encoding="UTF-8"?>
<svg xmlns="http://www.w3.org/2000/svg" xmlns:xlink="http://www.w3.org/1999/xlink" width="375pt" height="374.999991pt" viewBox="0 0 375 374.999991" version="1.2">
<g id="surface1">
<path style=" stroke:none;fill-rule:nonzero;fill:rgb(79.219055%,27.839661%,27.059937%);fill-opacity:1;" d="M 172.921875 4.113281 C 131.472656 7.121094 91.296875 25.160156 60.78125 54.492188 C 48.753906 65.96875 41.742188 74.441406 32.992188 87.832031 C 17.050781 112.25 6.300781 143.039062 4.296875 170.007812 L 3.75 178.023438 L 100.320312 178.023438 L 101.410156 172.285156 C 108.699219 133.839844 138.761719 105.417969 177.117188 100.589844 C 201.710938 97.492188 227.859375 105.964844 246.261719 122.910156 C 259.925781 135.574219 269.128906 151.878906 272.769531 169.828125 L 274.320312 177.570312 L 322.785156 177.84375 C 364.691406 178.027344 371.160156 177.84375 371.160156 176.753906 C 371.160156 176.023438 370.523438 170.558594 369.796875 164.636719 C 361.59375 102.046875 323.511719 49.207031 266.851562 21.789062 C 253.183594 15.140625 236.058594 9.398438 221.9375 6.847656 C 212.917969 5.113281 190.597656 2.929688 185.3125 3.203125 C 184.039062 3.292969 178.480469 3.65625 172.921875 4.113281 Z M 172.921875 4.113281 "/>
<path style=" stroke:none;fill-rule:nonzero;fill:rgb(79.219055%,27.839661%,27.059937%);fill-opacity:1;" d="M 178.207031 120.628906 C 151.699219 124.273438 128.921875 144.589844 121.816406 170.738281 C 119.628906 178.84375 119.628906 196.335938 121.816406 204.445312 C 127.007812 223.578125 140.214844 239.792969 157.527344 248.175781 C 168.730469 253.546875 174.835938 254.917969 188.042969 254.917969 C 198.335938 254.828125 200.25 254.554688 207.628906 252.09375 C 219.382812 248.085938 226.488281 243.621094 235.414062 234.605469 C 241.882812 228.136719 243.976562 225.222656 247.53125 218.113281 C 253.546875 205.910156 254.820312 199.441406 254.273438 184.863281 C 253.726562 169.011719 250.902344 160.632812 242.246094 148.425781 C 228.042969 128.285156 202.53125 117.257812 178.207031 120.628906 Z M 195.332031 159.4375 C 205.628906 162.261719 214.101562 171.554688 216.289062 182.304688 C 218.929688 194.785156 212.007812 208.359375 200.074219 214.191406 C 195.609375 216.378906 193.789062 216.742188 187.136719 216.742188 C 180.851562 216.652344 178.664062 216.289062 175.292969 214.554688 C 168.460938 211.003906 164.816406 207.539062 161.628906 201.617188 C 155.707031 190.503906 157.257812 177.207031 165.546875 168.277344 C 173.925781 159.257812 183.949219 156.25 195.332031 159.4375 Z M 195.332031 159.4375 "/>
<path style=" stroke:none;fill-rule:nonzero;fill:rgb(79.219055%,27.839661%,27.059937%);fill-opacity:1;" d="M 4.296875 205.539062 C 6.847656 238.335938 22.335938 276.507812 43.835938 302.835938 C 50.03125 310.488281 64.699219 325.15625 72.351562 331.351562 C 127.921875 376.351562 205.359375 384.550781 269.578125 352.300781 C 288.34375 342.828125 302.105469 332.894531 317.40625 317.5 C 348.199219 286.621094 366.234375 248.082031 370.703125 203.71875 L 371.25 198.070312 L 274.046875 198.070312 L 272.859375 204.628906 C 268.214844 232.050781 246.078125 259.015625 220.023438 269.035156 C 207.269531 273.957031 201.617188 274.957031 187.136719 274.957031 C 176.296875 274.957031 172.558594 274.59375 166.179688 272.859375 C 131.929688 263.75 107.148438 236.511719 101.136719 201.4375 L 100.5 198.066406 L 3.75 198.066406 Z M 4.296875 205.539062 "/>
</g>
</svg>
